<svg xmlns="http://www.w3.org/2000/svg" viewBox="0 0 24 24" xmlns:v="https://vecta.io/nano"><path fill="#6563ff" d="M12 2.247a10 10 0 0 0-3.162 19.487c.5.088.688-.212.688-.475l-.013-1.862C7 19.859 6.35 18.784 6.15 18.222a3.636 3.636 0 0 0-1.025-1.413c-.35-.187-.85-.65-.013-.662a2.001 2.001 0 0 1 1.538 1.025 2.137 2.137 0 0 0 2.912.825 2.104 2.104 0 0 1 .638-1.337c-2.225-.25-4.55-1.113-4.55-4.937a3.892 3.892 0 0 1 1.025-2.687 3.594 3.594 0 0 1 .1-2.65s.837-.263 2.75 1.025a9.427 9.427 0 0 1 5 0c1.912-1.3 2.75-1.025 2.75-1.025a3.593 3.593 0 0 1 .1 2.65 3.869 3.869 0 0 1 1.025 2.688c0 3.837-2.338 4.688-4.562 4.938a2.368 2.368 0 0 1 .675 1.85l-.013 2.75c0 .263.188.575.688.475A10.005 10.005 0 0 0 12 2.247z"/></svg>